<?xml version="1.0" encoding="UTF-8" ?>
<!DOCTYPE svg PUBLIC "-//W3C//DTD SVG 1.1//EN" "http://www.w3.org/Graphics/SVG/1.1/DTD/svg11.dtd">
<svg width="600pt" height="600pt" viewBox="0 0 600 600" version="1.1" xmlns="http://www.w3.org/2000/svg">
<path fill="#fefefe" d=" M 0.00 0.00 L 600.00 0.00 L 600.00 600.00 L 0.00 600.00 L 0.00 0.00 Z" />
<path fill="#02c6e1" d=" M 300.38 29.38 C 342.10 53.36 383.78 77.43 425.43 101.54 C 462.35 122.62 498.93 144.28 535.98 165.13 C 535.99 170.04 536.03 174.96 536.00 179.88 C 532.79 178.18 529.59 176.46 526.39 174.73 C 526.01 181.02 526.19 187.32 526.42 193.61 C 529.61 195.39 532.78 197.22 535.95 199.06 C 536.06 205.33 535.99 211.60 536.00 217.88 C 532.79 216.17 529.59 214.47 526.41 212.73 C 526.71 218.62 526.22 224.60 524.02 230.13 C 528.02 232.39 531.95 234.76 535.96 237.02 C 536.03 243.35 536.03 249.68 535.96 256.01 C 522.69 248.24 509.23 240.81 496.11 232.80 C 489.13 228.41 480.66 230.99 472.97 230.16 C 471.01 229.90 468.39 229.50 467.70 227.32 C 466.49 223.84 466.58 220.09 466.42 216.46 C 434.42 198.26 402.66 179.62 370.71 161.32 C 360.18 154.98 349.26 149.31 338.88 142.72 C 337.73 144.64 336.91 146.84 335.30 148.42 C 329.63 150.00 323.64 149.18 317.83 149.40 C 339.27 162.36 361.22 174.47 382.81 187.18 C 424.89 211.42 466.95 235.71 508.99 260.03 C 517.98 265.08 526.77 270.48 535.89 275.28 C 536.06 281.52 536.05 287.77 535.96 294.01 C 468.75 255.22 401.56 216.40 334.36 177.61 C 329.17 174.43 323.82 171.50 318.39 168.75 C 318.03 175.03 318.18 181.32 318.41 187.60 C 345.07 202.45 371.32 218.05 397.80 233.21 C 443.84 259.84 489.97 286.32 535.95 313.04 C 536.04 319.36 536.04 325.69 535.96 332.01 C 471.07 294.57 406.22 257.07 341.33 219.65 C 333.71 215.30 326.27 210.62 318.39 206.75 C 318.03 213.03 318.18 219.32 318.41 225.60 C 362.42 250.43 405.94 276.11 449.80 301.21 C 478.50 317.86 507.29 334.34 535.96 351.04 C 536.04 357.36 536.03 363.69 535.96 370.01 C 468.97 331.34 402.00 292.65 335.00 253.99 C 329.59 250.69 324.05 247.60 318.38 244.75 C 318.02 251.03 318.17 257.32 318.41 263.60 C 340.02 275.51 361.16 288.24 382.62 300.41 C 416.60 320.13 450.66 339.70 484.68 359.36 C 492.83 364.21 501.28 368.58 509.13 373.92 C 498.17 373.92 487.19 374.30 476.23 373.74 C 448.58 357.27 420.50 341.51 392.70 325.28 C 373.05 313.92 353.36 302.62 333.72 291.24 C 328.74 288.17 323.60 285.40 318.39 282.75 C 318.07 289.12 318.17 295.49 318.30 301.86 C 350.96 320.83 383.73 339.64 416.42 358.57 C 433.13 368.02 449.55 378.00 466.41 387.18 C 466.55 384.17 466.60 381.14 467.21 378.19 C 467.42 375.80 469.90 374.79 471.60 373.54 C 470.34 377.86 469.59 382.32 469.73 386.84 C 461.99 391.58 454.04 395.95 446.10 400.34 C 447.38 399.08 448.59 397.74 449.83 396.44 C 417.81 377.60 385.51 359.23 353.37 340.59 C 341.65 334.08 330.35 326.81 318.38 320.75 C 318.02 327.03 318.18 333.32 318.42 339.60 C 352.58 359.03 386.51 378.84 420.56 398.46 C 425.81 401.50 430.96 405.54 437.33 405.58 C 429.96 409.79 422.70 414.16 415.29 418.30 C 415.69 417.22 416.09 416.15 416.51 415.09 C 393.47 401.51 370.22 388.29 347.07 374.89 C 337.46 369.60 328.31 363.47 318.39 358.76 C 318.02 365.03 318.18 371.32 318.42 377.59 C 344.52 392.45 370.54 407.47 396.45 422.65 C 399.44 424.56 403.11 424.38 406.39 423.41 C 399.09 427.58 391.93 431.99 384.58 436.07 C 382.22 433.84 379.84 431.58 377.00 429.97 C 365.61 423.82 354.58 417.04 343.29 410.72 C 334.99 406.07 327.02 400.81 318.39 396.76 C 318.02 403.03 318.18 409.32 318.42 415.59 C 331.20 422.75 343.86 430.14 356.53 437.50 C 361.55 440.62 367.14 444.97 373.40 442.44 C 365.41 447.16 357.35 451.75 349.34 456.44 C 349.78 455.26 350.22 454.10 350.67 452.94 C 339.92 446.84 329.49 440.16 318.40 434.67 C 318.21 441.43 318.16 448.20 318.17 454.97 L 317.19 454.92 C 316.72 435.95 317.15 416.97 317.01 398.00 C 317.02 313.67 316.97 229.33 317.03 145.00 C 323.07 144.86 329.29 145.79 335.21 144.36 C 336.80 142.46 337.10 139.86 337.93 137.59 C 340.29 138.73 342.67 139.82 345.00 141.01 C 386.58 165.12 428.25 189.09 469.86 213.16 C 469.88 216.88 469.62 220.69 470.69 224.31 C 472.33 226.48 475.54 225.85 477.94 226.12 C 491.31 225.92 504.70 225.99 518.08 226.06 C 520.15 225.79 522.99 226.29 524.33 224.29 C 525.25 221.64 525.08 218.77 525.12 216.02 C 524.90 204.34 524.96 192.66 525.14 180.98 C 525.12 178.22 525.17 175.40 524.37 172.73 C 522.83 171.79 521.16 171.12 519.49 170.50 C 442.32 125.81 365.07 81.24 287.80 36.71 C 292.01 34.31 296.21 31.87 300.38 29.38 Z" />
<path fill="#1ae2fd" d=" M 271.77 46.34 C 276.91 42.79 282.43 39.88 287.80 36.71 C 365.07 81.24 442.32 125.81 519.49 170.50 C 508.42 171.38 497.32 170.96 486.24 170.91 C 479.20 165.61 471.25 161.76 463.70 157.28 C 422.03 133.10 380.20 109.21 338.60 84.92 C 338.26 81.43 337.99 77.92 337.41 74.46 C 335.80 73.33 334.07 72.13 332.03 72.06 C 326.45 71.67 320.84 72.16 315.25 71.91 C 301.00 62.99 286.21 54.95 271.77 46.34 Z" />
<path fill="#02c6e1" d=" M 254.91 55.79 C 260.51 52.61 265.78 48.77 271.77 46.34 C 286.21 54.95 301.00 62.99 315.25 71.91 C 304.22 72.01 293.19 72.03 282.16 71.96 C 273.40 66.04 264.06 61.07 254.91 55.79 Z" />
<path fill="#1ae2fd" d=" M 238.77 65.08 C 244.07 61.85 249.50 58.83 254.91 55.79 C 264.06 61.07 273.40 66.04 282.16 71.96 C 276.60 72.04 271.03 71.88 265.47 71.60 C 263.57 73.52 261.49 75.27 259.77 77.35 C 252.58 73.59 245.61 69.43 238.77 65.08 Z" />
<path fill="#02c6e1" d=" M 221.91 74.78 C 227.58 71.63 233.02 68.09 238.77 65.08 C 245.61 69.43 252.58 73.59 259.77 77.35 C 261.49 75.27 263.57 73.52 265.47 71.60 C 264.75 74.67 263.94 77.76 263.92 80.94 C 264.08 100.31 263.97 119.69 263.96 139.07 C 264.17 141.00 263.97 144.06 266.44 144.57 C 271.89 145.58 277.48 144.96 283.00 144.96 C 282.97 248.29 283.03 351.63 282.97 454.96 C 282.33 454.95 281.07 454.93 280.44 454.92 C 279.64 452.23 278.88 449.17 276.09 447.87 C 228.66 420.71 181.40 393.22 134.01 365.96 C 128.60 362.64 123.09 359.49 117.37 356.73 C 117.25 362.43 117.14 368.14 117.14 373.84 L 116.20 373.79 C 115.82 367.53 116.02 361.26 116.00 355.00 C 116.01 312.01 116.02 269.02 115.99 226.04 C 120.09 226.03 124.30 226.47 128.30 225.32 C 130.28 223.96 129.84 221.16 130.10 219.08 C 130.03 207.05 129.88 195.03 130.11 183.01 C 130.11 179.58 130.35 176.06 129.37 172.73 C 127.84 171.78 126.16 171.12 124.49 170.50 C 113.15 164.05 101.99 157.28 90.63 150.88 C 95.78 147.10 101.67 144.52 106.93 140.93 L 107.51 141.29 C 122.43 150.60 137.92 158.95 153.06 167.91 C 195.33 192.17 237.42 216.75 279.72 240.96 C 279.90 234.68 279.79 228.41 279.72 222.14 C 248.12 203.73 216.40 185.53 184.74 167.23 C 164.39 155.31 143.73 143.91 123.58 131.65 C 128.98 128.34 134.57 125.34 139.84 121.82 L 140.45 122.22 C 147.83 127.10 155.59 131.37 163.26 135.77 C 202.10 158.13 240.82 180.70 279.72 202.95 C 279.90 196.68 279.79 190.41 279.72 184.15 C 250.25 166.93 220.60 150.01 191.09 132.86 C 179.56 126.19 167.88 119.75 156.59 112.68 C 161.85 109.15 167.52 106.29 172.84 102.87 L 173.44 103.26 C 182.41 109.28 192.05 114.17 201.29 119.72 C 227.45 134.79 253.51 150.03 279.75 164.96 C 279.83 159.71 279.82 154.46 279.76 149.21 C 274.20 149.15 268.26 150.20 263.00 148.03 C 259.79 144.69 260.93 139.35 260.55 135.10 C 236.93 121.16 213.01 107.75 189.40 93.79 L 188.88 93.48 C 194.39 90.79 199.66 87.64 204.96 84.56 C 223.63 94.91 241.75 106.25 260.61 116.25 C 260.93 109.88 260.82 103.51 260.70 97.14 C 247.82 89.61 234.90 82.14 221.91 74.78 Z" />
<path fill="#fefefe" d=" M 265.47 71.60 C 271.03 71.88 276.60 72.04 282.16 71.96 C 293.19 72.03 304.22 72.01 315.25 71.91 C 320.84 72.16 326.45 71.67 332.03 72.06 C 334.07 72.13 335.80 73.33 337.41 74.46 C 336.68 83.97 337.09 93.50 336.97 103.02 C 378.51 127.19 420.27 151.02 461.79 175.21 C 464.19 176.42 466.69 177.43 469.10 178.66 C 469.99 176.39 470.02 173.47 471.83 171.73 C 476.46 170.26 481.45 171.05 486.24 170.91 C 497.32 170.96 508.42 171.38 519.49 170.50 C 521.16 171.12 522.83 171.79 524.37 172.73 C 525.17 175.40 525.12 178.22 525.14 180.98 C 524.96 192.66 524.90 204.34 525.12 216.02 C 525.08 218.77 525.25 221.64 524.33 224.29 C 522.99 226.29 520.15 225.79 518.08 226.06 C 504.70 225.99 491.31 225.92 477.94 226.12 C 475.54 225.85 472.33 226.48 470.69 224.31 C 469.62 220.69 469.88 216.88 469.86 213.16 C 428.25 189.09 386.58 165.12 345.00 141.01 C 342.67 139.82 340.29 138.73 337.93 137.59 C 337.10 139.86 336.80 142.46 335.21 144.36 C 329.29 145.79 323.07 144.86 317.03 145.00 C 316.97 229.33 317.02 313.67 317.01 398.00 C 317.15 416.97 316.72 435.95 317.19 454.92 L 318.17 454.97 C 323.84 455.28 329.65 454.25 335.22 455.64 C 336.70 457.60 337.14 460.09 337.95 462.37 C 341.80 460.49 345.71 458.73 349.34 456.44 C 357.35 451.75 365.41 447.16 373.40 442.44 C 377.17 440.40 380.85 438.19 384.58 436.07 C 391.93 431.99 399.09 427.58 406.39 423.41 C 409.39 421.76 412.31 419.97 415.29 418.30 C 422.70 414.16 429.96 409.79 437.33 405.58 C 440.31 403.94 443.21 402.15 446.10 400.34 C 454.04 395.95 461.99 391.58 469.73 386.84 C 469.59 382.32 470.34 377.86 471.60 373.54 C 473.14 373.57 474.68 373.64 476.23 373.74 C 487.19 374.30 498.17 373.92 509.13 373.92 C 513.58 373.95 518.12 373.51 522.51 374.50 C 523.78 374.68 524.63 375.74 524.86 376.96 C 525.30 389.96 524.76 402.98 525.09 415.99 C 525.02 419.74 525.47 423.64 524.29 427.27 C 522.96 429.26 520.14 428.79 518.08 429.05 C 505.38 429.03 492.68 428.93 479.98 429.12 C 477.26 429.04 474.41 429.27 471.82 428.29 C 470.07 426.46 469.93 423.65 469.05 421.38 C 460.03 425.10 452.02 430.72 443.52 435.43 C 408.00 455.92 372.44 476.34 337.02 496.99 C 336.95 505.02 337.01 513.05 337.07 521.08 C 336.80 523.15 337.28 525.98 335.29 527.33 C 332.64 528.25 329.78 528.08 327.02 528.13 C 308.32 527.86 289.62 528.01 270.93 528.10 C 268.84 527.83 266.02 528.28 264.67 526.29 C 263.66 523.30 263.90 520.10 263.90 517.01 C 264.14 510.43 264.01 503.85 263.88 497.28 C 227.75 476.75 191.90 455.76 155.87 435.07 C 147.53 430.52 139.72 425.00 130.91 421.35 C 130.22 423.52 129.79 425.81 128.70 427.83 C 126.88 429.32 124.25 428.86 122.06 429.07 C 108.68 428.93 95.30 429.06 81.93 429.08 C 79.85 428.82 77.04 429.25 75.70 427.27 C 74.74 424.63 74.92 421.77 74.87 419.02 C 75.05 407.33 75.09 395.65 74.86 383.97 C 74.74 380.41 75.62 376.95 76.60 373.56 C 78.15 373.59 79.70 373.64 81.25 373.72 C 83.49 373.91 85.74 373.99 87.99 374.12 C 87.98 324.79 88.02 275.47 87.97 226.14 C 84.22 226.11 80.35 226.41 76.71 225.32 C 74.71 223.98 75.18 221.16 74.92 219.08 C 75.02 206.38 75.06 193.68 74.88 180.99 C 75.22 177.96 74.18 173.93 76.73 171.71 C 81.09 170.36 85.75 170.98 90.24 170.89 C 101.66 170.97 113.09 171.38 124.49 170.50 C 126.16 171.12 127.84 171.78 129.37 172.73 C 130.35 176.06 130.11 179.58 130.11 183.01 C 129.88 195.03 130.03 207.05 130.10 219.08 C 129.84 221.16 130.28 223.96 128.30 225.32 C 124.30 226.47 120.09 226.03 115.99 226.04 C 116.02 269.02 116.01 312.01 116.00 355.00 C 116.02 361.26 115.82 367.53 116.20 373.79 L 117.14 373.84 C 120.60 374.00 124.11 373.74 127.51 374.52 C 128.85 374.61 129.50 375.82 129.80 376.98 C 130.22 380.23 130.13 383.51 130.06 386.78 C 157.35 402.55 184.66 418.28 211.94 434.07 C 229.04 443.63 245.67 454.08 263.05 463.14 C 263.97 460.49 264.89 457.85 265.88 455.23 C 270.72 454.77 275.59 454.93 280.44 454.92 C 281.07 454.93 282.33 454.95 282.97 454.96 C 283.03 351.63 282.97 248.29 283.00 144.96 C 277.48 144.96 271.89 145.58 266.44 144.57 C 263.97 144.06 264.17 141.00 263.96 139.07 C 263.97 119.69 264.08 100.31 263.92 80.94 C 263.94 77.76 264.75 74.67 265.47 71.60 Z" />
<path fill="#1ae2fd" d=" M 204.96 84.56 C 210.51 81.12 216.24 78.02 221.91 74.78 C 234.90 82.14 247.82 89.61 260.70 97.14 C 260.82 103.51 260.93 109.88 260.61 116.25 C 241.75 106.25 223.63 94.91 204.96 84.56 Z" />
<path fill="#02c6e1" d=" M 337.41 74.46 C 337.99 77.92 338.26 81.43 338.60 84.92 C 380.20 109.21 422.03 133.10 463.70 157.28 C 471.25 161.76 479.20 165.61 486.24 170.91 C 481.45 171.05 476.46 170.26 471.83 171.73 C 470.02 173.47 469.99 176.39 469.10 178.66 C 466.69 177.43 464.19 176.42 461.79 175.21 C 420.27 151.02 378.51 127.19 336.97 103.02 C 337.09 93.50 336.68 83.97 337.41 74.46 Z" />
<path fill="#fa7118" d=" M 268.00 76.00 C 289.67 76.00 311.33 76.00 333.00 76.00 C 333.03 85.94 332.94 95.87 333.06 105.81 C 380.08 132.81 426.99 160.02 473.97 187.10 C 474.00 183.07 474.01 179.03 474.01 175.00 C 489.67 174.99 505.34 174.99 521.00 175.00 C 521.00 190.67 521.01 206.33 521.00 222.00 C 505.35 222.01 489.71 222.01 474.06 222.00 C 474.01 218.13 473.94 214.26 473.82 210.39 C 431.54 186.37 389.58 161.78 347.40 137.57 C 342.71 134.77 337.97 132.05 333.12 129.52 C 333.01 133.35 332.97 137.17 332.97 141.00 C 326.32 140.96 319.66 141.05 313.01 141.00 C 312.99 247.00 312.99 353.00 313.01 459.00 C 319.66 458.95 326.32 459.04 332.98 459.00 C 332.97 462.82 333.01 466.65 333.12 470.48 C 380.22 443.88 426.76 416.27 473.83 389.61 C 473.94 385.74 474.01 381.87 474.06 378.00 C 489.71 377.99 505.35 377.99 521.00 378.00 C 521.00 393.67 521.01 409.33 520.99 425.00 C 505.33 425.00 489.67 425.00 474.01 425.00 C 474.01 420.96 474.00 416.93 473.97 412.90 C 426.99 439.98 380.08 467.19 333.06 494.20 C 332.94 504.13 333.03 514.06 333.00 524.00 C 311.33 524.00 289.67 524.00 268.00 524.00 C 267.99 514.32 267.99 504.64 268.01 494.96 C 220.76 467.48 173.34 440.27 126.03 412.90 C 126.00 416.93 125.99 420.96 125.99 424.99 C 110.33 425.01 94.67 425.01 79.00 425.00 C 78.99 409.34 78.99 393.67 79.00 378.01 C 83.33 378.02 87.66 377.97 91.99 377.98 C 92.01 325.99 92.01 274.01 91.99 222.02 C 87.66 222.03 83.33 221.98 79.00 221.99 C 78.99 206.32 79.00 190.66 79.00 175.00 C 94.67 174.99 110.33 174.99 126.00 175.00 C 126.00 190.67 126.01 206.33 126.00 222.00 C 121.33 221.96 116.67 222.05 112.01 222.01 C 111.99 274.00 111.99 326.00 112.01 377.99 C 116.65 377.95 121.29 378.04 125.93 378.00 C 125.99 381.87 126.05 385.74 126.17 389.61 C 173.58 416.52 220.55 444.21 267.94 471.17 C 267.99 467.11 268.02 463.05 268.02 458.99 C 274.34 459.06 280.66 458.93 286.99 459.00 C 287.01 353.00 287.01 247.00 286.99 141.00 C 280.66 141.07 274.33 140.94 268.00 141.01 C 268.00 119.34 268.00 97.67 268.00 76.00 Z" />
<path fill="#1ae2fd" d=" M 173.44 103.26 C 178.42 99.55 183.91 96.64 189.40 93.79 C 213.01 107.75 236.93 121.16 260.55 135.10 C 260.93 139.35 259.79 144.69 263.00 148.03 C 268.26 150.20 274.20 149.15 279.76 149.21 C 279.82 154.46 279.83 159.71 279.75 164.96 C 253.51 150.03 227.45 134.79 201.29 119.72 C 192.05 114.17 182.41 109.28 173.44 103.26 Z" />
<path fill="#1ae2fd" d=" M 140.45 122.22 C 145.50 118.49 151.05 115.59 156.59 112.68 C 167.88 119.75 179.56 126.19 191.09 132.86 C 220.60 150.01 250.25 166.93 279.72 184.15 C 279.79 190.41 279.90 196.68 279.72 202.95 C 240.82 180.70 202.10 158.13 163.26 135.77 C 155.59 131.37 147.83 127.10 140.45 122.22 Z" />
<path fill="#1ae2fd" d=" M 107.51 141.29 C 112.62 137.68 118.03 134.54 123.58 131.65 C 143.73 143.91 164.39 155.31 184.74 167.23 C 216.40 185.53 248.12 203.73 279.72 222.14 C 279.79 228.41 279.90 234.68 279.72 240.96 C 237.42 216.75 195.33 192.17 153.06 167.91 C 137.92 158.95 122.43 150.60 107.51 141.29 Z" />
<path fill="#1ae2fd" d=" M 338.88 142.72 C 349.26 149.31 360.18 154.98 370.71 161.32 C 402.66 179.62 434.42 198.26 466.42 216.46 C 466.58 220.09 466.49 223.84 467.70 227.32 C 468.39 229.50 471.01 229.90 472.97 230.16 C 480.66 230.99 489.13 228.41 496.11 232.80 C 509.23 240.81 522.69 248.24 535.96 256.01 C 536.07 262.43 536.06 268.86 535.89 275.28 C 526.77 270.48 517.98 265.08 508.99 260.03 C 466.95 235.71 424.89 211.42 382.81 187.18 C 361.22 174.47 339.27 162.36 317.83 149.40 C 323.64 149.18 329.63 150.00 335.30 148.42 C 336.91 146.84 337.73 144.64 338.88 142.72 Z" />
<path fill="#1ae2fd" d=" M 73.83 160.55 C 79.31 157.14 84.72 153.52 90.63 150.88 C 101.99 157.28 113.15 164.05 124.49 170.50 C 113.09 171.38 101.66 170.97 90.24 170.89 C 85.01 167.08 79.37 163.87 73.83 160.55 Z" />
<path fill="#02c6e1" d=" M 73.37 160.27 L 73.83 160.55 C 79.37 163.87 85.01 167.08 90.24 170.89 C 85.75 170.98 81.09 170.36 76.73 171.71 C 74.18 173.93 75.22 177.96 74.88 180.99 C 75.06 193.68 75.02 206.38 74.92 219.08 C 75.18 221.16 74.71 223.98 76.71 225.32 C 80.35 226.41 84.22 226.11 87.97 226.14 C 88.02 275.47 87.98 324.79 87.99 374.12 C 85.74 373.99 83.49 373.91 81.25 373.72 C 75.93 370.59 70.80 367.09 65.10 364.65 C 64.93 358.09 64.96 351.54 65.05 344.98 C 71.48 348.87 77.92 352.77 84.63 356.18 C 84.98 349.92 84.83 343.64 84.57 337.38 C 78.16 333.65 71.82 329.80 65.11 326.64 C 64.94 320.39 64.94 314.15 65.06 307.90 C 71.65 311.49 78.12 315.31 84.70 318.95 C 84.96 312.43 84.80 305.90 84.58 299.38 C 78.17 295.65 71.82 291.81 65.11 288.64 C 64.93 282.09 64.96 275.53 65.05 268.98 C 71.48 272.87 77.92 276.77 84.63 280.19 C 84.98 273.92 84.82 267.64 84.57 261.38 C 78.17 257.65 71.82 253.80 65.11 250.64 C 64.93 244.09 64.96 237.53 65.05 230.98 C 71.52 234.88 77.96 238.83 84.73 242.21 C 84.73 238.30 84.76 234.40 84.86 230.49 C 81.06 230.17 76.75 230.76 73.43 228.56 C 71.14 225.04 72.32 220.40 71.18 216.47 C 69.64 214.54 67.23 213.62 65.15 212.41 C 64.88 205.95 64.98 199.49 65.04 193.03 C 67.28 194.31 69.51 195.62 71.72 196.96 C 71.60 190.81 72.59 184.54 71.31 178.47 C 69.63 176.60 67.25 175.62 65.11 174.41 C 65.10 171.33 65.04 168.24 64.95 165.17 C 67.82 163.65 70.67 162.08 73.37 160.27 Z" />
<path fill="#1ae2fd" d=" M 318.39 168.75 C 323.82 171.50 329.17 174.43 334.36 177.61 C 401.56 216.40 468.75 255.22 535.96 294.01 C 536.05 300.35 536.04 306.70 535.95 313.04 C 489.97 286.32 443.84 259.84 397.80 233.21 C 371.32 218.05 345.07 202.45 318.41 187.60 C 318.18 181.32 318.03 175.03 318.39 168.75 Z" />
<path fill="#1ae2fd" d=" M 65.11 174.41 C 67.25 175.62 69.63 176.60 71.31 178.47 C 72.59 184.54 71.60 190.81 71.72 196.96 C 69.51 195.62 67.28 194.31 65.04 193.03 C 64.93 186.82 64.94 180.61 65.11 174.41 Z" />
<path fill="#1ae2fd" d=" M 131.37 174.77 C 142.08 180.09 152.09 186.69 162.58 192.42 C 201.63 215.00 240.71 237.51 279.74 260.11 C 279.80 266.48 279.88 272.86 279.63 279.24 C 269.34 274.14 259.75 267.80 249.69 262.30 C 210.23 239.48 170.71 216.75 131.28 193.88 C 131.20 187.51 131.11 181.13 131.37 174.77 Z" />
<path fill="#1ae2fd" d=" M 526.39 174.73 C 529.59 176.46 532.79 178.18 536.00 179.88 C 536.00 186.27 536.08 192.66 535.95 199.06 C 532.78 197.22 529.61 195.39 526.42 193.61 C 526.19 187.32 526.01 181.02 526.39 174.73 Z" />
<path fill="#1ae2fd" d=" M 318.39 206.75 C 326.27 210.62 333.71 215.30 341.33 219.65 C 406.22 257.07 471.07 294.57 535.96 332.01 C 536.05 338.35 536.05 344.69 535.96 351.04 C 507.29 334.34 478.50 317.86 449.80 301.21 C 405.94 276.11 362.42 250.43 318.41 225.60 C 318.18 219.32 318.03 213.03 318.39 206.75 Z" />
<path fill="#1ae2fd" d=" M 65.15 212.41 C 67.23 213.62 69.64 214.54 71.18 216.47 C 72.32 220.40 71.14 225.04 73.43 228.56 C 76.75 230.76 81.06 230.17 84.86 230.49 C 84.76 234.40 84.73 238.30 84.73 242.21 C 77.96 238.83 71.52 234.88 65.05 230.98 C 64.94 224.79 64.90 218.59 65.15 212.41 Z" />
<path fill="#1ae2fd" d=" M 131.33 212.75 C 141.20 217.58 150.37 223.69 160.02 228.96 C 199.93 251.99 239.86 275.02 279.74 298.11 C 279.77 304.39 279.83 310.68 279.73 316.96 C 229.30 288.12 179.20 258.70 128.70 229.98 C 132.21 224.90 131.25 218.56 131.33 212.75 Z" />
<path fill="#1ae2fd" d=" M 526.41 212.73 C 529.59 214.47 532.79 216.17 536.00 217.88 C 536.01 224.26 536.06 230.64 535.96 237.02 C 531.95 234.76 528.02 232.39 524.02 230.13 C 526.22 224.60 526.71 218.62 526.41 212.73 Z" />
<path fill="#1ae2fd" d=" M 117.38 242.76 C 119.36 243.73 121.35 244.68 123.31 245.70 C 175.39 275.94 227.64 305.91 279.74 336.11 C 279.78 342.39 279.83 348.68 279.73 354.96 C 250.77 338.40 221.92 321.64 193.05 304.94 C 167.77 290.61 142.88 275.60 117.39 261.63 C 117.18 255.34 117.08 249.05 117.38 242.76 Z" />
<path fill="#1ae2fd" d=" M 318.38 244.75 C 324.05 247.60 329.59 250.69 335.00 253.99 C 402.00 292.65 468.97 331.34 535.96 370.01 C 536.04 376.36 536.06 382.71 535.95 389.05 C 533.22 387.57 530.29 386.31 528.03 384.15 C 526.53 381.98 525.73 379.42 524.86 376.96 C 524.63 375.74 523.78 374.68 522.51 374.50 C 518.12 373.51 513.58 373.95 509.13 373.92 C 501.28 368.58 492.83 364.21 484.68 359.36 C 450.66 339.70 416.60 320.13 382.62 300.41 C 361.16 288.24 340.02 275.51 318.41 263.60 C 318.17 257.32 318.02 251.03 318.38 244.75 Z" />
<path fill="#1ae2fd" d=" M 65.11 250.64 C 71.82 253.80 78.17 257.65 84.57 261.38 C 84.82 267.64 84.98 273.92 84.63 280.19 C 77.92 276.77 71.48 272.87 65.05 268.98 C 64.93 262.87 64.93 256.75 65.11 250.64 Z" />
<path fill="#1ae2fd" d=" M 117.38 280.75 C 119.36 281.73 121.35 282.69 123.32 283.71 C 175.40 313.94 227.64 343.91 279.75 374.11 C 279.78 380.39 279.83 386.68 279.73 392.96 C 251.63 376.90 223.65 360.64 195.64 344.43 C 169.49 329.60 143.73 314.10 117.39 299.62 C 117.18 293.33 117.09 287.04 117.38 280.75 Z" />
<path fill="#1ae2fd" d=" M 318.39 282.75 C 323.60 285.40 328.74 288.17 333.72 291.24 C 353.36 302.62 373.05 313.92 392.70 325.28 C 420.50 341.51 448.58 357.27 476.23 373.74 C 474.68 373.64 473.14 373.57 471.60 373.54 C 469.90 374.79 467.42 375.80 467.21 378.19 C 466.60 381.14 466.55 384.17 466.41 387.18 C 449.55 378.00 433.13 368.02 416.42 358.57 C 383.73 339.64 350.96 320.83 318.30 301.86 C 318.17 295.49 318.07 289.12 318.39 282.75 Z" />
<path fill="#1ae2fd" d=" M 65.11 288.64 C 71.82 291.81 78.17 295.65 84.58 299.38 C 84.80 305.90 84.96 312.43 84.70 318.95 C 78.12 315.31 71.65 311.49 65.06 307.90 C 64.93 301.48 64.93 295.06 65.11 288.64 Z" />
<path fill="#1ae2fd" d=" M 117.37 318.75 C 119.35 319.73 121.35 320.68 123.32 321.71 C 175.40 351.94 227.64 381.91 279.74 412.11 C 279.80 418.48 279.88 424.86 279.63 431.24 C 274.13 428.61 268.91 425.47 263.69 422.34 C 214.85 394.25 166.12 365.97 117.29 337.88 C 117.20 331.51 117.11 325.13 117.37 318.75 Z" />
<path fill="#1ae2fd" d=" M 318.38 320.75 C 330.35 326.81 341.65 334.08 353.37 340.59 C 385.51 359.23 417.81 377.60 449.83 396.44 C 448.59 397.74 447.38 399.08 446.10 400.34 C 443.21 402.15 440.31 403.94 437.33 405.58 C 430.96 405.54 425.81 401.50 420.56 398.46 C 386.51 378.84 352.58 359.03 318.42 339.60 C 318.18 333.32 318.02 327.03 318.38 320.75 Z" />
<path fill="#1ae2fd" d=" M 65.11 326.64 C 71.82 329.80 78.16 333.65 84.57 337.38 C 84.83 343.64 84.98 349.92 84.63 356.18 C 77.92 352.77 71.48 348.87 65.05 344.98 C 64.93 338.87 64.93 332.75 65.11 326.64 Z" />
<path fill="#1ae2fd" d=" M 117.37 356.73 C 123.09 359.49 128.60 362.64 134.01 365.96 C 181.40 393.22 228.66 420.71 276.09 447.87 C 278.88 449.17 279.64 452.23 280.44 454.92 C 275.59 454.93 270.72 454.77 265.88 455.23 C 263.09 456.18 259.95 458.05 257.16 456.01 C 216.37 432.41 175.60 408.71 134.67 385.35 C 131.76 383.54 131.12 379.88 129.80 376.98 C 129.50 375.82 128.85 374.61 127.51 374.52 C 124.11 373.74 120.60 374.00 117.14 373.84 C 117.14 368.14 117.25 362.43 117.37 356.73 Z" />
<path fill="#1ae2fd" d=" M 318.39 358.76 C 328.31 363.47 337.46 369.60 347.07 374.89 C 370.22 388.29 393.47 401.51 416.51 415.09 C 416.09 416.15 415.69 417.22 415.29 418.30 C 412.31 419.97 409.39 421.76 406.39 423.41 C 403.11 424.38 399.44 424.56 396.45 422.65 C 370.54 407.47 344.52 392.45 318.42 377.59 C 318.18 371.32 318.02 365.03 318.39 358.76 Z" />
<path fill="#1ae2fd" d=" M 65.10 364.65 C 70.80 367.09 75.93 370.59 81.25 373.72 C 79.70 373.64 78.15 373.59 76.60 373.56 C 75.19 374.47 73.73 375.38 72.61 376.65 C 71.56 379.97 71.66 383.49 71.53 386.93 C 69.39 385.58 67.22 384.28 65.04 383.00 C 64.93 376.88 64.94 370.77 65.10 364.65 Z" />
<path fill="#02c6e1" d=" M 72.61 376.65 C 73.73 375.38 75.19 374.47 76.60 373.56 C 75.62 376.95 74.74 380.41 74.86 383.97 C 75.09 395.65 75.05 407.33 74.87 419.02 C 74.92 421.77 74.74 424.63 75.70 427.27 C 77.04 429.25 79.85 428.82 81.93 429.08 C 95.30 429.06 108.68 428.93 122.06 429.07 C 124.25 428.86 126.88 429.32 128.70 427.83 C 129.79 425.81 130.22 423.52 130.91 421.35 C 139.72 425.00 147.53 430.52 155.87 435.07 C 191.90 455.76 227.75 476.75 263.88 497.28 C 264.01 503.85 264.14 510.43 263.90 517.01 C 263.90 520.10 263.66 523.30 264.67 526.29 C 266.02 528.28 268.84 527.83 270.93 528.10 C 289.62 528.01 308.32 527.86 327.02 528.13 C 329.78 528.08 332.64 528.25 335.29 527.33 C 337.28 525.98 336.80 523.15 337.07 521.08 C 337.01 513.05 336.95 505.02 337.02 496.99 C 372.44 476.34 408.00 455.92 443.52 435.43 C 452.02 430.72 460.03 425.10 469.05 421.38 C 469.93 423.65 470.07 426.46 471.82 428.29 C 474.41 429.27 477.26 429.04 479.98 429.12 C 492.68 428.93 505.38 429.03 518.08 429.05 C 520.14 428.79 522.96 429.26 524.29 427.27 C 525.47 423.64 525.02 419.74 525.09 415.99 C 524.76 402.98 525.30 389.96 524.86 376.96 C 525.73 379.42 526.53 381.98 528.03 384.15 C 530.29 386.31 533.22 387.57 535.95 389.05 C 536.06 395.32 535.99 401.60 536.00 407.87 C 532.78 406.17 529.58 404.45 526.39 402.73 C 526.07 409.13 526.19 415.54 526.25 421.95 C 529.46 423.78 532.67 425.60 535.91 427.38 C 535.88 430.20 535.94 433.02 536.06 435.84 C 532.95 437.45 529.87 439.14 526.99 441.14 L 526.44 440.77 C 521.15 437.32 515.75 433.00 509.09 433.16 C 499.99 433.14 490.88 433.21 481.79 433.40 C 491.04 439.51 501.00 444.42 510.34 450.39 C 505.00 453.78 499.31 456.58 494.05 460.08 L 493.48 459.72 C 482.50 452.83 471.02 446.80 459.99 440.01 C 456.54 438.27 452.66 434.37 448.60 436.61 C 443.92 438.88 439.69 441.97 435.14 444.48 C 448.97 453.20 463.49 460.77 477.42 469.34 C 472.02 472.66 466.43 475.66 461.16 479.18 L 460.55 478.78 C 451.28 472.77 441.47 467.67 432.02 461.97 C 427.52 459.20 422.84 456.76 418.21 454.22 C 412.86 457.30 407.44 460.28 402.15 463.46 C 410.81 469.12 419.99 473.89 428.90 479.14 C 434.11 482.02 439.07 485.35 444.37 488.10 C 439.31 492.01 433.45 494.62 428.15 498.15 L 427.55 497.76 C 415.60 490.06 402.91 483.61 390.90 476.01 C 388.82 474.93 386.48 473.03 384.03 474.15 C 378.56 476.26 373.90 479.94 368.86 482.85 C 382.68 491.62 397.32 499.01 411.14 507.78 C 405.80 510.86 400.35 513.77 395.20 517.16 L 394.63 516.78 C 382.95 509.05 370.33 502.89 358.55 495.34 C 356.26 494.18 353.72 491.98 351.02 493.16 C 346.45 494.94 342.56 498.02 338.32 500.43 C 338.30 501.01 338.25 502.18 338.22 502.77 C 351.63 510.67 365.21 518.27 378.60 526.20 L 379.11 526.50 C 373.27 529.32 367.78 532.81 362.24 536.19 L 361.64 535.79 C 354.32 530.78 346.43 526.69 338.78 522.20 C 338.03 525.13 338.23 528.78 335.99 531.04 C 332.26 532.75 327.98 532.30 323.97 532.49 C 331.28 536.84 338.66 541.07 346.09 545.21 C 340.56 548.62 334.94 551.86 329.22 554.92 C 320.19 549.06 310.63 544.08 301.39 538.56 C 297.17 536.07 293.06 532.90 288.03 532.36 C 280.73 531.50 273.35 533.08 266.06 532.02 C 264.34 531.73 262.29 531.14 261.62 529.33 C 260.22 524.74 260.65 519.86 260.69 515.13 C 214.84 488.28 168.61 462.06 122.73 435.26 C 118.54 432.96 113.62 433.05 108.99 433.13 C 101.63 433.31 94.28 433.18 86.92 433.33 C 95.69 439.36 105.19 444.20 114.31 449.66 C 180.63 487.78 246.79 526.19 313.08 564.36 C 308.90 566.52 305.14 569.51 300.73 571.22 C 299.73 571.08 298.84 570.59 297.96 570.17 C 233.31 532.78 168.57 495.52 103.94 458.09 C 90.91 450.78 78.17 442.96 65.02 435.87 C 65.01 430.92 64.94 425.97 65.03 421.03 C 67.28 422.31 69.50 423.62 71.71 424.96 C 71.60 418.81 72.59 412.54 71.31 406.47 C 69.63 404.62 67.28 403.61 65.16 402.41 C 64.88 395.94 64.98 389.47 65.04 383.00 C 67.22 384.28 69.39 385.58 71.53 386.93 C 71.66 383.49 71.56 379.97 72.61 376.65 Z" />
<path fill="#02c6e1" d=" M 129.80 376.98 C 131.12 379.88 131.76 383.54 134.67 385.35 C 175.60 408.71 216.37 432.41 257.16 456.01 C 259.95 458.05 263.09 456.18 265.88 455.23 C 264.89 457.85 263.97 460.49 263.05 463.14 C 245.67 454.08 229.04 443.63 211.94 434.07 C 184.66 418.28 157.35 402.55 130.06 386.78 C 130.13 383.51 130.22 380.23 129.80 376.98 Z" />
<path fill="#1ae2fd" d=" M 318.39 396.76 C 327.02 400.81 334.99 406.07 343.29 410.72 C 354.58 417.04 365.61 423.82 377.00 429.97 C 379.84 431.58 382.22 433.84 384.58 436.07 C 380.85 438.19 377.17 440.40 373.40 442.44 C 367.14 444.97 361.55 440.62 356.53 437.50 C 343.86 430.14 331.20 422.75 318.42 415.59 C 318.18 409.32 318.02 403.03 318.39 396.76 Z" />
<path fill="#1ae2fd" d=" M 65.16 402.41 C 67.28 403.61 69.63 404.62 71.31 406.47 C 72.59 412.54 71.60 418.81 71.71 424.96 C 69.50 423.62 67.28 422.31 65.03 421.03 C 64.95 414.82 64.90 408.61 65.16 402.41 Z" />
<path fill="#1ae2fd" d=" M 526.39 402.73 C 529.58 404.45 532.78 406.17 536.00 407.87 C 536.03 414.37 536.07 420.88 535.91 427.38 C 532.67 425.60 529.46 423.78 526.25 421.95 C 526.19 415.54 526.07 409.13 526.39 402.73 Z" />
<path fill="#1ae2fd" d=" M 86.92 433.33 C 94.28 433.18 101.63 433.31 108.99 433.13 C 113.62 433.05 118.54 432.96 122.73 435.26 C 168.61 462.06 214.84 488.28 260.69 515.13 C 260.65 519.86 260.22 524.74 261.62 529.33 C 262.29 531.14 264.34 531.73 266.06 532.02 C 273.35 533.08 280.73 531.50 288.03 532.36 C 293.06 532.90 297.17 536.07 301.39 538.56 C 310.63 544.08 320.19 549.06 329.22 554.92 C 323.86 558.11 318.49 561.25 313.08 564.36 C 246.79 526.19 180.63 487.78 114.31 449.66 C 105.19 444.20 95.69 439.36 86.92 433.33 Z" />
<path fill="#1ae2fd" d=" M 481.79 433.40 C 490.88 433.21 499.99 433.14 509.09 433.16 C 515.75 433.00 521.15 437.32 526.44 440.77 C 521.32 444.40 515.76 447.27 510.34 450.39 C 501.00 444.42 491.04 439.51 481.79 433.40 Z" />
<path fill="#1ae2fd" d=" M 318.40 434.67 C 329.49 440.16 339.92 446.84 350.67 452.94 C 350.22 454.10 349.78 455.26 349.34 456.44 C 345.71 458.73 341.80 460.49 337.95 462.37 C 337.14 460.09 336.70 457.60 335.22 455.64 C 329.65 454.25 323.84 455.28 318.17 454.97 C 318.16 448.20 318.21 441.43 318.40 434.67 Z" />
<path fill="#1ae2fd" d=" M 448.60 436.61 C 452.66 434.37 456.54 438.27 459.99 440.01 C 471.02 446.80 482.50 452.83 493.48 459.72 C 488.36 463.32 482.97 466.46 477.42 469.34 C 463.49 460.77 448.97 453.20 435.14 444.48 C 439.69 441.97 443.92 438.88 448.60 436.61 Z" />
<path fill="#1ae2fd" d=" M 402.15 463.46 C 407.44 460.28 412.86 457.30 418.21 454.22 C 422.84 456.76 427.52 459.20 432.02 461.97 C 441.47 467.67 451.28 472.77 460.55 478.78 C 455.40 482.27 450.18 485.80 444.37 488.10 C 439.07 485.35 434.11 482.02 428.90 479.14 C 419.99 473.89 410.81 469.12 402.15 463.46 Z" />
<path fill="#1ae2fd" d=" M 384.03 474.15 C 386.48 473.03 388.82 474.93 390.90 476.01 C 402.91 483.61 415.60 490.06 427.55 497.76 C 422.38 501.59 416.60 504.43 411.14 507.78 C 397.32 499.01 382.68 491.62 368.86 482.85 C 373.90 479.94 378.56 476.26 384.03 474.15 Z" />
<path fill="#1ae2fd" d=" M 351.02 493.16 C 353.72 491.98 356.26 494.18 358.55 495.34 C 370.33 502.89 382.95 509.05 394.63 516.78 C 389.73 520.65 384.15 523.43 378.60 526.20 C 365.21 518.27 351.63 510.67 338.22 502.77 C 338.25 502.18 338.30 501.01 338.32 500.43 C 342.56 498.02 346.45 494.94 351.02 493.16 Z" />
<path fill="#1ae2fd" d=" M 338.78 522.20 C 346.43 526.69 354.32 530.78 361.64 535.79 C 356.87 539.59 351.32 542.14 346.09 545.21 C 338.66 541.07 331.28 536.84 323.97 532.49 C 327.98 532.30 332.26 532.75 335.99 531.04 C 338.23 528.78 338.03 525.13 338.78 522.20 Z" />
</svg>
