<?xml version="1.0" standalone="no"?>
<!DOCTYPE svg PUBLIC "-//W3C//DTD SVG 20010904//EN"
 "http://www.w3.org/TR/2001/REC-SVG-20010904/DTD/svg10.dtd">
<svg version="1.0" xmlns="http://www.w3.org/2000/svg"
 width="600.000000pt" height="600.000000pt" viewBox="0 0 600.000000 600.000000"
 preserveAspectRatio="xMidYMid meet">
<metadata>
Created by potrace 1.11, written by Peter Selinger 2001-2013
</metadata>
<g transform="translate(0.000000,600.000000) scale(0.100000,-0.100000)"
fill="#000000" stroke="none">
<path d="M2900 5363 c-93 -54 -378 -219 -850 -491 -830 -477 -1069 -617 -1098
-638 l-32 -25 2 -1216 3 -1216 440 -254 c242 -140 548 -316 680 -392 360 -207
612 -353 793 -458 l162 -94 163 94 c180 105 432 251 792 458 132 76 438 252
680 392 l440 254 0 1223 0 1223 -440 254 c-242 140 -548 316 -680 392 -359
207 -611 353 -791 457 -89 52 -164 94 -165 94 -2 -1 -47 -26 -99 -57z m444
-425 c182 -105 414 -239 516 -298 102 -59 259 -150 350 -202 91 -53 251 -145
355 -205 l190 -108 3 -99 3 -98 -33 20 c-34 20 -210 121 -758 437 -179 103
-381 220 -450 260 -334 194 -424 245 -432 245 -4 0 -8 -851 -8 -1891 0 -1534
2 -1890 13 -1886 15 6 276 155 772 442 198 115 421 243 495 286 74 42 194 111
265 153 l130 75 3 -86 c2 -48 1 -92 -2 -98 -2 -7 -35 -29 -73 -50 -37 -21
-135 -77 -218 -125 -82 -47 -226 -131 -320 -184 -93 -54 -226 -131 -295 -171
-498 -290 -840 -485 -850 -485 -6 0 -129 68 -273 152 -144 83 -334 193 -422
244 -268 154 -533 307 -665 384 -69 39 -205 118 -302 173 l-178 102 0 1077 0
1077 73 45 c41 25 77 46 80 46 4 0 7 -483 7 -1072 l1 -1073 157 -91 c164 -96
872 -504 1215 -701 109 -63 205 -117 213 -120 12 -4 14 275 14 1986 l0 1991
33 20 c17 11 38 20 46 20 8 0 163 -86 345 -192z"/>
</g>
</svg>
